<?xml version="1.0" encoding="UTF-8" standalone="no"?>
<!-- Svg Vector Icons : http://www.onlinewebfonts.com/icon -->

<svg
   version="1.1"
   x="0px"
   y="0px"
   viewBox="0 0 256 256"
   enable-background="new 0 0 256 256"
   xml:space="preserve"
   id="svg4"
   sodipodi:docname="bicyc_road_bike.svg"
   inkscape:version="1.3.2 (091e20e, 2023-11-25)"
   xmlns:inkscape="http://www.inkscape.org/namespaces/inkscape"
   xmlns:sodipodi="http://sodipodi.sourceforge.net/DTD/sodipodi-0.dtd"
   xmlns="http://www.w3.org/2000/svg"
   xmlns:svg="http://www.w3.org/2000/svg"><defs
   id="defs4" /><sodipodi:namedview
   id="namedview4"
   pagecolor="#ffffff"
   bordercolor="#111111"
   borderopacity="1"
   inkscape:showpageshadow="0"
   inkscape:pageopacity="0"
   inkscape:pagecheckerboard="1"
   inkscape:deskcolor="#d1d1d1"
   inkscape:zoom="0.921875"
   inkscape:cx="127.45763"
   inkscape:cy="128"
   inkscape:window-width="1312"
   inkscape:window-height="449"
   inkscape:window-x="0"
   inkscape:window-y="25"
   inkscape:window-maximized="0"
   inkscape:current-layer="svg4" />
<metadata
   id="metadata1"> Svg Vector Icons : http://www.onlinewebfonts.com/icon </metadata>
<g
   id="g4"
   style="fill:#307b4a;fill-opacity:1"><g
     id="g3"
     style="fill:#307b4a;fill-opacity:1"><path
       fill="#000000"
       d="M170.6,99.6c-14.1,15.7-28.3,31.3-42,47.3c-1.6,1.9,0.1,6.3-1,9c-1.7,4-3.7,9.2-7,10.7c-3.4,1.6-10.3,1-12.7-1.4c-13.1-13.5-30.5-10.5-46.3-13.2c-2.8-0.5-5.7-1.1-8.5-1.7c1.1-2.7,1.7-5.8,3.4-7.9c10.9-13.8,22.2-27.3,33.2-41.1c10.5-13.1,4.6-30.5-11.7-35.6c-1.6-0.5-3-1.8-7.4-4.5c13.4,0,23.8,0,34.1,0c0.1,0.6,0.2,1.3,0.3,1.9c-3.4,0.6-6.7,1.2-11.8,2.2c1.7,5.9,2.4,12,5.2,16.9c1.7,3,6.6,6.3,9.9,6.1c19-1,37.8-2.9,57-4.6c1.3-31.1,25.1-6.5,35.7-15.5c-6.3,7.6-1.1,23.1-16,23.6c2.6-4.8,5.1-9.5,7.6-14.2c-6.4-2.3-12.8-4.5-19.1-6.8c-1,1.3-2.1,2.5-3.1,3.7c6.1,20.2,12,40.4,18.7,60.4c1.1,3.3,6.3,5,9.3,7.8c2,1.9,3.6,4.4,4.9,6.8c0.2,0.3-3,3.4-3.7,3.1c-2.2-1-4.6-2.6-5.7-4.6c-6.3-11-12.3-22.1-18.4-33.2c-17,11.1-23.3,30.5-15.4,49.1c7.9,18.7,28.6,29.4,47.8,24.6c20.2-4.9,34.2-23,33.1-42.5c-1.4-24.1-17.9-37.2-55.2-41.1c5.6-2,8.1-3.6,10.8-3.7c22.8-1.5,43.5,14.5,48.7,37.4c4.8,21-7.1,43.6-27.5,52.3c-21.1,9-45.1,2.2-58-16.5c-12.8-18.7-10.4-43.7,5.8-59.9c3.5-3.5,6.5-7.4,9.8-11.2C173.6,102.1,172.1,100.8,170.6,99.6z M171.2,91.9c-0.7-1.4-1.3-2.8-2-4.1c-22.3,1.8-44.5,3.5-68.1,5.4c5.1,16.7,9.3,30.9,13.7,45c2.6,8.1,6.9,9.3,12.8,2.8c8.4-9.3,16.8-18.5,25.1-27.8C159,106.1,165.1,99,171.2,91.9z M98.5,153.2c1.7-16.5-3.5-27.6-15.4-37.4c-7.8,10.1-14.7,19-23.3,30.1C74,148.6,85.5,150.8,98.5,153.2z M107,144.6c1.3,0.1,2.7,0.2,4,0.2c-2.2-15.2-7.2-29.8-13.7-46.1c-4,5.2-6.7,8.6-8.2,10.4C95.6,122,101.3,133.3,107,144.6z"
       id="path1"
       style="fill:#307b4a;fill-opacity:1" /><path
       fill="#000000"
       d="M74.2,106.8c-28.3-3.8-49.9,3.7-58,33.3c-4.3,15.8,3.7,34.3,18.7,42.9c25.5,14.6,45.5,4.7,62.9-18.3c-3.9,21.8-29.1,34.7-51.8,28.8c-26.9-7-42-33.1-34-58.9C20.4,108,47.9,94.9,74.2,106.8z"
       id="path2"
       style="fill:#307b4a;fill-opacity:1" /><path
       fill="#000000"
       d="M107,144.6c-5.7-11.3-11.4-22.6-17.8-35.5c1.4-1.8,4.1-5.3,8.2-10.4c6.5,16.4,11.5,30.9,13.7,46.1C109.7,144.8,108.3,144.7,107,144.6z"
       id="path3"
       style="fill:#307b4a;fill-opacity:1" /></g></g>
</svg>
