<?xml version="1.0" encoding="utf-8"?>
<svg viewBox="0 0 500 500" xmlns="http://www.w3.org/2000/svg">
  <circle style="stroke: rgb(0, 0, 0); fill: rgb(65, 132, 243);" cx="250" cy="250" r="182.415"/>
  <path d="M 253.486 481.971 C 221.878 481.971 192.175 475.973 164.376 463.977 C 136.577 451.982 112.396 435.703 91.832 415.139 C 71.268 394.575 54.989 370.394 42.994 342.595 C 30.998 314.796 25 285.093 25 253.485 C 25 221.788 31.008 192 43.024 164.121 C 55.041 136.243 71.348 111.992 91.948 91.37 C 112.547 70.748 136.728 54.53 164.492 42.718 C 192.255 30.906 221.919 25 253.486 25 C 285.179 25 314.964 30.906 342.84 42.718 C 370.715 54.53 394.967 70.749 415.594 91.377 C 436.222 112.004 452.44 136.26 464.253 164.144 C 476.065 192.03 481.971 221.825 481.971 253.529 C 481.971 285.235 476.065 314.927 464.253 342.606 C 452.44 370.285 436.223 394.423 415.601 415.023 C 394.979 435.622 370.728 451.93 342.849 463.946 C 314.971 475.963 285.183 481.971 253.486 481.971 Z M 253.486 425.907 C 301.62 425.907 342.391 409.204 375.797 375.797 C 409.203 342.391 425.907 301.62 425.907 253.485 C 425.907 205.351 409.203 164.58 375.797 131.174 C 342.391 97.768 301.62 81.063 253.486 81.063 C 205.351 81.063 164.58 97.768 131.174 131.174 C 97.767 164.58 81.064 205.351 81.064 253.485 C 81.064 301.62 97.767 342.391 131.174 375.797 C 164.58 409.204 205.351 425.907 253.486 425.907 Z M 253.486 253.485 Z" style="fill: rgb(242, 247, 254);"/>
</svg>